<mxfile host="65bd71144e">
    <diagram id="mkdZ0KiKZ-_6tcIvDiZi" name="Page-1">
        <mxGraphModel dx="1727" dy="783" grid="1" gridSize="10" guides="1" tooltips="1" connect="1" arrows="1" fold="1" page="1" pageScale="1" pageWidth="1100" pageHeight="850" math="0" shadow="0">
            <root>
                <mxCell id="0"/>
                <mxCell id="1" parent="0"/>
                <mxCell id="MIE51UDfvQ76vIjZUeyL-1" value="Song Rank Tool" style="rounded=0;whiteSpace=wrap;html=1;" parent="1" vertex="1">
                    <mxGeometry x="480" y="40" width="160" height="40" as="geometry"/>
                </mxCell>
                <mxCell id="MIE51UDfvQ76vIjZUeyL-2" value="" style="rounded=0;whiteSpace=wrap;html=1;" parent="1" vertex="1">
                    <mxGeometry x="100" y="180" width="320" height="280" as="geometry"/>
                </mxCell>
                <mxCell id="MIE51UDfvQ76vIjZUeyL-4" value="" style="rounded=0;whiteSpace=wrap;html=1;fillColor=#f8cecc;strokeColor=#b85450;" parent="1" vertex="1">
                    <mxGeometry x="390" y="180" width="30" height="20" as="geometry"/>
                </mxCell>
                <mxCell id="MIE51UDfvQ76vIjZUeyL-5" value="" style="rounded=0;whiteSpace=wrap;html=1;fillColor=#d5e8d4;strokeColor=#82b366;" parent="1" vertex="1">
                    <mxGeometry x="360" y="180" width="30" height="20" as="geometry"/>
                </mxCell>
                <mxCell id="MIE51UDfvQ76vIjZUeyL-6" value="" style="rounded=0;whiteSpace=wrap;html=1;fillColor=#fff2cc;strokeColor=#d6b656;" parent="1" vertex="1">
                    <mxGeometry x="330" y="180" width="30" height="20" as="geometry"/>
                </mxCell>
                <mxCell id="MIE51UDfvQ76vIjZUeyL-3" value="" style="rounded=0;whiteSpace=wrap;html=1;fillColor=none;" parent="1" vertex="1">
                    <mxGeometry x="100" y="180" width="320" height="20" as="geometry"/>
                </mxCell>
                <mxCell id="MIE51UDfvQ76vIjZUeyL-7" value="&lt;font style=&quot;font-size: 18px&quot;&gt;song rank tool&lt;/font&gt;" style="rounded=0;whiteSpace=wrap;html=1;fillColor=none;" parent="1" vertex="1">
                    <mxGeometry x="190" y="220" width="140" height="30" as="geometry"/>
                </mxCell>
                <mxCell id="MIE51UDfvQ76vIjZUeyL-12" value="Go" style="rounded=0;whiteSpace=wrap;html=1;fillColor=none;" parent="1" vertex="1">
                    <mxGeometry x="290" y="370" width="110" height="20" as="geometry"/>
                </mxCell>
                <mxCell id="MIE51UDfvQ76vIjZUeyL-13" value="Spotify Playlist link" style="rounded=0;whiteSpace=wrap;html=1;fillColor=none;" parent="1" vertex="1">
                    <mxGeometry x="120" y="290" width="110" height="20" as="geometry"/>
                </mxCell>
                <mxCell id="MIE51UDfvQ76vIjZUeyL-14" value="" style="rounded=0;whiteSpace=wrap;html=1;fillColor=none;" parent="1" vertex="1">
                    <mxGeometry x="120" y="320" width="280" height="40" as="geometry"/>
                </mxCell>
                <mxCell id="MIE51UDfvQ76vIjZUeyL-16" value="" style="rounded=0;whiteSpace=wrap;html=1;" parent="1" vertex="1">
                    <mxGeometry x="460" y="180" width="320" height="280" as="geometry"/>
                </mxCell>
                <mxCell id="MIE51UDfvQ76vIjZUeyL-17" value="" style="rounded=0;whiteSpace=wrap;html=1;fillColor=#f8cecc;strokeColor=#b85450;" parent="1" vertex="1">
                    <mxGeometry x="750" y="180" width="30" height="20" as="geometry"/>
                </mxCell>
                <mxCell id="MIE51UDfvQ76vIjZUeyL-18" value="" style="rounded=0;whiteSpace=wrap;html=1;fillColor=#d5e8d4;strokeColor=#82b366;" parent="1" vertex="1">
                    <mxGeometry x="720" y="180" width="30" height="20" as="geometry"/>
                </mxCell>
                <mxCell id="MIE51UDfvQ76vIjZUeyL-19" value="" style="rounded=0;whiteSpace=wrap;html=1;fillColor=#fff2cc;strokeColor=#d6b656;" parent="1" vertex="1">
                    <mxGeometry x="690" y="180" width="30" height="20" as="geometry"/>
                </mxCell>
                <mxCell id="MIE51UDfvQ76vIjZUeyL-20" value="" style="rounded=0;whiteSpace=wrap;html=1;fillColor=none;" parent="1" vertex="1">
                    <mxGeometry x="460" y="180" width="320" height="20" as="geometry"/>
                </mxCell>
                <mxCell id="MIE51UDfvQ76vIjZUeyL-26" value="#" style="rounded=0;whiteSpace=wrap;html=1;fillColor=none;" parent="1" vertex="1">
                    <mxGeometry x="480" y="210" width="30" height="30" as="geometry"/>
                </mxCell>
                <mxCell id="MIE51UDfvQ76vIjZUeyL-27" value="#" style="rounded=0;whiteSpace=wrap;html=1;fillColor=none;" parent="1" vertex="1">
                    <mxGeometry x="480" y="240" width="30" height="30" as="geometry"/>
                </mxCell>
                <mxCell id="MIE51UDfvQ76vIjZUeyL-28" value="#" style="rounded=0;whiteSpace=wrap;html=1;fillColor=none;" parent="1" vertex="1">
                    <mxGeometry x="480" y="270" width="30" height="30" as="geometry"/>
                </mxCell>
                <mxCell id="MIE51UDfvQ76vIjZUeyL-29" value="#" style="rounded=0;whiteSpace=wrap;html=1;fillColor=none;" parent="1" vertex="1">
                    <mxGeometry x="480" y="300" width="30" height="30" as="geometry"/>
                </mxCell>
                <mxCell id="MIE51UDfvQ76vIjZUeyL-30" value="#" style="rounded=0;whiteSpace=wrap;html=1;fillColor=none;" parent="1" vertex="1">
                    <mxGeometry x="480" y="330" width="30" height="30" as="geometry"/>
                </mxCell>
                <mxCell id="MIE51UDfvQ76vIjZUeyL-31" value="#" style="rounded=0;whiteSpace=wrap;html=1;fillColor=none;" parent="1" vertex="1">
                    <mxGeometry x="480" y="360" width="30" height="30" as="geometry"/>
                </mxCell>
                <mxCell id="MIE51UDfvQ76vIjZUeyL-32" value="#" style="aspect=fixed;html=1;points=[];align=center;image;fontSize=12;image=img/lib/azure2/general/Image.svg;fontFamily=Helvetica;fontColor=#f0f0f0;strokeColor=#f0f0f0;" parent="1" vertex="1">
                    <mxGeometry x="500" y="425" width="30" height="30" as="geometry"/>
                </mxCell>
                <mxCell id="MIE51UDfvQ76vIjZUeyL-33" value="title" style="rounded=0;whiteSpace=wrap;html=1;fillColor=none;" parent="1" vertex="1">
                    <mxGeometry x="510" y="210" width="250" height="30" as="geometry"/>
                </mxCell>
                <mxCell id="MIE51UDfvQ76vIjZUeyL-34" value="title" style="rounded=0;whiteSpace=wrap;html=1;fillColor=none;" parent="1" vertex="1">
                    <mxGeometry x="510" y="240" width="250" height="30" as="geometry"/>
                </mxCell>
                <mxCell id="MIE51UDfvQ76vIjZUeyL-35" value="title" style="rounded=0;whiteSpace=wrap;html=1;fillColor=none;" parent="1" vertex="1">
                    <mxGeometry x="510" y="270" width="250" height="30" as="geometry"/>
                </mxCell>
                <mxCell id="MIE51UDfvQ76vIjZUeyL-36" value="title" style="rounded=0;whiteSpace=wrap;html=1;fillColor=none;" parent="1" vertex="1">
                    <mxGeometry x="510" y="300" width="250" height="30" as="geometry"/>
                </mxCell>
                <mxCell id="MIE51UDfvQ76vIjZUeyL-37" value="title" style="rounded=0;whiteSpace=wrap;html=1;fillColor=none;" parent="1" vertex="1">
                    <mxGeometry x="510" y="330" width="250" height="30" as="geometry"/>
                </mxCell>
                <mxCell id="MIE51UDfvQ76vIjZUeyL-38" value="title" style="rounded=0;whiteSpace=wrap;html=1;fillColor=none;" parent="1" vertex="1">
                    <mxGeometry x="510" y="360" width="250" height="30" as="geometry"/>
                </mxCell>
                <mxCell id="MIE51UDfvQ76vIjZUeyL-39" value="title" style="rounded=0;whiteSpace=wrap;html=1;fillColor=none;" parent="1" vertex="1">
                    <mxGeometry x="510" y="390" width="250" height="30" as="geometry"/>
                </mxCell>
                <mxCell id="MIE51UDfvQ76vIjZUeyL-40" value="" style="rounded=0;whiteSpace=wrap;html=1;" parent="1" vertex="1">
                    <mxGeometry x="100" y="500" width="320" height="280" as="geometry"/>
                </mxCell>
                <mxCell id="MIE51UDfvQ76vIjZUeyL-41" value="" style="rounded=0;whiteSpace=wrap;html=1;fillColor=#f8cecc;strokeColor=#b85450;" parent="1" vertex="1">
                    <mxGeometry x="390" y="500" width="30" height="20" as="geometry"/>
                </mxCell>
                <mxCell id="MIE51UDfvQ76vIjZUeyL-42" value="" style="rounded=0;whiteSpace=wrap;html=1;fillColor=#d5e8d4;strokeColor=#82b366;" parent="1" vertex="1">
                    <mxGeometry x="360" y="500" width="30" height="20" as="geometry"/>
                </mxCell>
                <mxCell id="MIE51UDfvQ76vIjZUeyL-43" value="" style="rounded=0;whiteSpace=wrap;html=1;fillColor=#fff2cc;strokeColor=#d6b656;" parent="1" vertex="1">
                    <mxGeometry x="330" y="500" width="30" height="20" as="geometry"/>
                </mxCell>
                <mxCell id="MIE51UDfvQ76vIjZUeyL-44" value="" style="rounded=0;whiteSpace=wrap;html=1;fillColor=none;" parent="1" vertex="1">
                    <mxGeometry x="100" y="500" width="320" height="20" as="geometry"/>
                </mxCell>
                <mxCell id="MIE51UDfvQ76vIjZUeyL-60" value="Start / Continue ranking" style="rounded=0;whiteSpace=wrap;html=1;fillColor=none;" parent="1" vertex="1">
                    <mxGeometry x="555" y="430" width="160" height="20" as="geometry"/>
                </mxCell>
                <mxCell id="MIE51UDfvQ76vIjZUeyL-61" value="Title" style="rounded=0;whiteSpace=wrap;html=1;fillColor=none;" parent="1" vertex="1">
                    <mxGeometry x="120" y="540" width="280" height="20" as="geometry"/>
                </mxCell>
                <mxCell id="MIE51UDfvQ76vIjZUeyL-62" value="" style="rounded=0;whiteSpace=wrap;html=1;fillColor=none;" parent="1" vertex="1">
                    <mxGeometry x="120" y="630" width="70" height="70" as="geometry"/>
                </mxCell>
                <mxCell id="MIE51UDfvQ76vIjZUeyL-63" value="" style="rounded=0;whiteSpace=wrap;html=1;fillColor=none;" parent="1" vertex="1">
                    <mxGeometry x="225" y="630" width="70" height="70" as="geometry"/>
                </mxCell>
                <mxCell id="MIE51UDfvQ76vIjZUeyL-64" value="" style="rounded=0;whiteSpace=wrap;html=1;fillColor=none;" parent="1" vertex="1">
                    <mxGeometry x="330" y="630" width="70" height="70" as="geometry"/>
                </mxCell>
                <mxCell id="MIE51UDfvQ76vIjZUeyL-65" value="Instrumentals / Beat" style="rounded=0;whiteSpace=wrap;html=1;fillColor=none;" parent="1" vertex="1">
                    <mxGeometry x="105" y="590" width="100" height="30" as="geometry"/>
                </mxCell>
                <mxCell id="MIE51UDfvQ76vIjZUeyL-66" value="Lyrics" style="rounded=0;whiteSpace=wrap;html=1;fillColor=none;" parent="1" vertex="1">
                    <mxGeometry x="210" y="590" width="100" height="30" as="geometry"/>
                </mxCell>
                <mxCell id="MIE51UDfvQ76vIjZUeyL-67" value="Feel" style="rounded=0;whiteSpace=wrap;html=1;fillColor=none;" parent="1" vertex="1">
                    <mxGeometry x="315" y="590" width="100" height="30" as="geometry"/>
                </mxCell>
                <mxCell id="MIE51UDfvQ76vIjZUeyL-68" value="&lt;font style=&quot;font-size: 35px&quot; face=&quot;Lucida Console&quot;&gt;6.0&lt;/font&gt;" style="text;html=1;strokeColor=none;fillColor=none;align=center;verticalAlign=middle;whiteSpace=wrap;rounded=0;" parent="1" vertex="1">
                    <mxGeometry x="330" y="630" width="70" height="70" as="geometry"/>
                </mxCell>
                <mxCell id="MIE51UDfvQ76vIjZUeyL-69" value="&lt;font style=&quot;font-size: 35px&quot; face=&quot;Lucida Console&quot;&gt;7.5&lt;/font&gt;" style="text;html=1;strokeColor=none;fillColor=none;align=center;verticalAlign=middle;whiteSpace=wrap;rounded=0;" parent="1" vertex="1">
                    <mxGeometry x="225" y="630" width="70" height="70" as="geometry"/>
                </mxCell>
                <mxCell id="MIE51UDfvQ76vIjZUeyL-70" value="&lt;font style=&quot;font-size: 35px&quot; face=&quot;Lucida Console&quot;&gt;1.5&lt;/font&gt;" style="text;html=1;strokeColor=none;fillColor=none;align=center;verticalAlign=middle;whiteSpace=wrap;rounded=0;" parent="1" vertex="1">
                    <mxGeometry x="120" y="630" width="70" height="70" as="geometry"/>
                </mxCell>
                <mxCell id="MIE51UDfvQ76vIjZUeyL-71" value="Continue" style="rounded=0;whiteSpace=wrap;html=1;fillColor=none;" parent="1" vertex="1">
                    <mxGeometry x="200" y="740" width="120" height="30" as="geometry"/>
                </mxCell>
                <mxCell id="MIE51UDfvQ76vIjZUeyL-73" value="" style="rounded=0;whiteSpace=wrap;html=1;" parent="1" vertex="1">
                    <mxGeometry x="460" y="500" width="320" height="280" as="geometry"/>
                </mxCell>
                <mxCell id="MIE51UDfvQ76vIjZUeyL-74" value="" style="rounded=0;whiteSpace=wrap;html=1;fillColor=#f8cecc;strokeColor=#b85450;" parent="1" vertex="1">
                    <mxGeometry x="750" y="500" width="30" height="20" as="geometry"/>
                </mxCell>
                <mxCell id="MIE51UDfvQ76vIjZUeyL-75" value="" style="rounded=0;whiteSpace=wrap;html=1;fillColor=#d5e8d4;strokeColor=#82b366;" parent="1" vertex="1">
                    <mxGeometry x="720" y="500" width="30" height="20" as="geometry"/>
                </mxCell>
                <mxCell id="MIE51UDfvQ76vIjZUeyL-76" value="" style="rounded=0;whiteSpace=wrap;html=1;fillColor=#fff2cc;strokeColor=#d6b656;" parent="1" vertex="1">
                    <mxGeometry x="690" y="500" width="30" height="20" as="geometry"/>
                </mxCell>
                <mxCell id="MIE51UDfvQ76vIjZUeyL-77" value="" style="rounded=0;whiteSpace=wrap;html=1;fillColor=none;" parent="1" vertex="1">
                    <mxGeometry x="460" y="500" width="320" height="20" as="geometry"/>
                </mxCell>
                <mxCell id="MIE51UDfvQ76vIjZUeyL-89" value="Final Ranking" style="rounded=0;whiteSpace=wrap;html=1;fillColor=none;" parent="1" vertex="1">
                    <mxGeometry x="550" y="530" width="120" height="30" as="geometry"/>
                </mxCell>
                <mxCell id="MIE51UDfvQ76vIjZUeyL-91" value="Users can choose the criteria for a &quot;winner&quot; in some sort of settings page&lt;br&gt;&lt;br&gt;they can view both the final ranking and the winners list&lt;br&gt;&lt;br&gt;users can also save their progress in the middle and can click to save the current song ranking in a file when they are done so they can see it again later" style="text;html=1;strokeColor=none;fillColor=none;align=center;verticalAlign=middle;whiteSpace=wrap;rounded=0;" parent="1" vertex="1">
                    <mxGeometry x="840" y="50" width="230" height="180" as="geometry"/>
                </mxCell>
                <mxCell id="2" value="#" style="rounded=0;whiteSpace=wrap;html=1;fillColor=none;" parent="1" vertex="1">
                    <mxGeometry x="480" y="390" width="30" height="30" as="geometry"/>
                </mxCell>
                <mxCell id="5" value="" style="edgeStyle=orthogonalEdgeStyle;rounded=0;orthogonalLoop=1;jettySize=auto;html=1;" edge="1" parent="1" source="3" target="4">
                    <mxGeometry relative="1" as="geometry"/>
                </mxCell>
                <mxCell id="3" value="user uploads file" style="rounded=0;whiteSpace=wrap;html=1;" vertex="1" parent="1">
                    <mxGeometry x="100" y="920" width="120" height="60" as="geometry"/>
                </mxCell>
                <mxCell id="7" value="" style="edgeStyle=orthogonalEdgeStyle;rounded=0;orthogonalLoop=1;jettySize=auto;html=1;" edge="1" parent="1" source="4" target="6">
                    <mxGeometry relative="1" as="geometry"/>
                </mxCell>
                <mxCell id="4" value="file path is passed to get song list" style="whiteSpace=wrap;html=1;rounded=0;" vertex="1" parent="1">
                    <mxGeometry x="300" y="920" width="120" height="60" as="geometry"/>
                </mxCell>
                <mxCell id="6" value="get song list reads the file into an array structured just like the spotify JSON&amp;nbsp;" style="whiteSpace=wrap;html=1;rounded=0;" vertex="1" parent="1">
                    <mxGeometry x="500" y="910" width="150" height="80" as="geometry"/>
                </mxCell>
            </root>
        </mxGraphModel>
    </diagram>
</mxfile>